<svg width="36" height="36" viewBox="0 0 36 36" fill="none" xmlns="http://www.w3.org/2000/svg">
<path fill-rule="evenodd" clip-rule="evenodd" d="M8 24C8 29.5228 12.4772 34 18 34C20.6522 34 23.1957 32.9464 25.0711 31.0711C26.9464 29.1957 28 26.6522 28 24V12C28 6.47715 23.5228 2 18 2C12.4772 2 8 6.47715 8 12V24ZM10 12C10 7.58172 13.5817 4 18 4C22.4183 4 26 7.58172 26 12V24C26 28.4183 22.4183 32 18 32C13.5817 32 10 28.4183 10 24V12Z" fill="#7e8bc3"/>
<path d="M18 15C17.4477 15 17 14.5523 17 14V10C17 9.44772 17.4477 9 18 9C18.5523 9 19 9.44772 19 10V14C19 14.5523 18.5523 15 18 15Z" fill="#7e8bc3"/>
</svg>
